<svg xmlns="http://www.w3.org/2000/svg" enable-background="new 0 0 140 140" viewBox="0 0 140 140"><path fill="#de594e" d="M105.8246613,47.5792122H46.7145576l-2.4569092-12.7915039
			c-0.1806641-0.9423828-1.0048828-1.6230469-1.9638672-1.6230469h-12.70508c-1.1044922,0-2,0.8955078-2,2s0.8955078,2,2,2
			h11.0527363l2.3105469,12.0283203c0.0154419,0.0808105,0.0419312,0.15625,0.0663452,0.2324219
			c0.0010376,0.0073242-0.0006104,0.0126953,0.0004883,0.0197754l5.4821167,35.069828
			c0.0170898,0.1113281,0.0490112,0.2165527,0.079834,0.3222656l-5.6072388,5.6081543
			c-1.6552734,1.6552734-2.1269531,4.0273438-1.2314453,6.1894531c0.8955078,2.1630859,2.90625,3.5068359,5.2480469,3.5068359
			h52.8203087c1.1044922,0,2-0.8955078,2-2s-0.8955078-2-2-2H46.9901314c-1.0419922,0-1.4521484-0.7939453-1.5527344-1.0371094
			s-0.3720703-1.0947266,0.3642578-1.8310547l6.3925781-6.3935547c0.0686646-0.0686035,0.1237183-0.1452637,0.1802979-0.2207031
			h48.2263145c1.2479248,0,2.3091431-0.9106445,2.4985352-2.1442871l5.2238159-34.0244179
			C108.5582428,48.9595833,107.3736115,47.5792122,105.8246613,47.5792122z M92.0701447,50.8992805h5.2800293l-0.6600342,5.8398438
			h-5.1199951L92.0701447,50.8992805z M91.3801422,58.9891243h5.0500488l-0.6000366,5.3601112h-4.9099731L91.3801422,58.9891243z
			 M84.5101471,50.8992805h5.2700195l-0.4299927,5.8398438h-5.1099854L84.5101471,50.8992805z M67.0901642,50.8992805
			l0.2600098,5.8398438h-5.1099815l-0.4299927-5.8398438H67.0901642z M60.6701851,64.3492355h-4.9000244l-0.6099854-5.3601112
			h5.0499878L60.6701851,64.3492355z M50.7601509,77.5692062l-0.6999512-4.5800781h4.6599731l0.5800171,4.5800781H50.7601509z
			 M59.5201607,50.8992805l0.5,5.8398438h-5.1099854l-0.6600342-5.8398438H59.5201607z M54.5201607,71.3592453h-4.7099609
			l-0.75-4.9401855h4.8399658L54.5201607,71.3592453z M46.6801949,50.8992805h5.2799683l0.7299805,5.8398438h-5.1199951
			L46.6801949,50.8992805z M47.9201851,58.9891243h5.0499878l0.6699829,5.3601112h-4.8999634L47.9201851,58.9891243z
			 M51.6401558,83.3392258l-0.6499634-4.2600098h4.5l0.5299683,4.2600098H51.6401558z M56.0001411,66.4190598h4.8500366
			l0.4199829,4.9401855h-4.7099609L56.0001411,66.4190598z M56.7501411,72.9891281h4.6600342l0.3900146,4.5800781h-4.5300293
			L56.7501411,72.9891281z M57.9201851,83.3392258l-0.4800415-4.2600098h4.4900513l0.3699951,4.2600098H57.9201851z
			 M62.4101753,58.9891243h5.049984l0.2399902,5.3601112H62.80019L62.4101753,58.9891243z M62.9501534,66.4190598h4.8500328
			l0.2199707,4.9401855h-4.7000084L62.9501534,66.4190598z M63.4401436,72.9891281h4.6600304l0.210022,4.5800781h-4.5400352
			L63.4401436,72.9891281z M64.2001495,83.3392258L63.880146,79.079216h4.4999962l0.1900024,4.2600098H64.2001495z
			 M69.3801422,50.8992805h5.2700195l0.039978,5.8398438h-5.1199951L69.3801422,50.8992805z M69.6501617,58.9891243h5.0499878
			l0.0300293,5.3601112h-4.9000244L69.6501617,58.9891243z M69.9001617,66.4190598h4.8499756l0.0300293,4.9401855h-4.710022
			L69.9001617,66.4190598z M70.1201935,72.9891281h4.6699829l0.0200195,4.5800781h-4.5300293L70.1201935,72.9891281z
			 M70.4701691,83.3392258l-0.1400146-4.2600098h4.4899902l0.0300293,4.2600098H70.4701691z M81.1201935,83.3392258h-4.3700562
			l0.0200195-4.2600098h4.5L81.1201935,83.3392258z M81.3201447,77.5692062h-4.539978l0.0300293-4.5800781h4.6599731
			L81.3201447,77.5692062z M81.5301666,71.3592453h-4.710022l0.0300293-4.9401855h4.8399658L81.5301666,71.3592453z
			 M81.7601471,64.3492355h-4.8999634l0.0299683-5.3601112h5.0499878L81.7601471,64.3492355z M82.0201569,56.7391243h-5.1099854
			l0.0299683-5.8398438h5.2800293L82.0201569,56.7391243z M87.4001617,83.3392258h-4.3800049l0.2000122-4.2600098h4.4899902
			L87.4001617,83.3392258z M87.8201447,77.5692062h-4.5299683l0.2099609-4.5800781h4.6600342L87.8201447,77.5692062z
			 M88.2801666,71.3592453h-4.710022l0.2300415-4.9401855h4.8399658L88.2801666,71.3592453z M88.7901764,64.3492355H83.890152
			l0.25-5.3601112h5.0499878L88.7901764,64.3492355z M93.680191,83.3392258h-4.3800049l0.3599854-4.2600098h4.5
			L93.680191,83.3392258z M94.3301544,77.5692062h-4.539978l0.3999634-4.5800781h4.6600342L94.3301544,77.5692062z
			 M90.3201447,71.3592453l0.4299927-4.9401855h4.8400269l-0.5599976,4.9401855H90.3201447z M99.9501495,83.3392258h-4.3699951
			l0.5300293-4.2600098h4.4899902L99.9501495,83.3392258z M100.8301544,77.5692062h-4.5299683l0.5700073-4.5800781h4.6599731
			L100.8301544,77.5692062z M101.7801666,71.3592453h-4.7000122l0.6099854-4.9401855h4.8500366L101.7801666,71.3592453z
			 M102.8601837,64.3492355h-4.9100342l0.6799927-5.3601112h5.0500488L102.8601837,64.3492355z M104.0201569,56.7391243h-5.1099854
			l0.7299805-5.8398438h5.2700195L104.0201569,56.7391243z"/><circle cx="61.8" cy="99.115" r="7.72" fill="#344d5b" transform="rotate(-67.5 61.8 99.115)"/><circle cx="61.8" cy="99.115" r="4.201" fill="#ededed" transform="rotate(-67.5 61.8 99.115)"/><circle cx="87.01" cy="99.115" r="7.72" fill="#344d5b" transform="rotate(-67.5 87.01 99.115)"/><circle cx="87.01" cy="99.115" r="4.201" fill="#ededed" transform="rotate(-67.5 87.01 99.115)"/></svg>