<svg xmlns="http://www.w3.org/2000/svg" id="Layer_1" x="0" y="0" version="1.1" viewBox="0 0 150 150" xml:space="preserve"><path fill="#ea8953" d="M11 11h128v128H11z"/><path d="M139 79.309l-27.06-27.061-.12-.12c-.41-.41-.981-.64-1.57-.64H66.26l-14.931-14.93-.18-.18c-.41-.41-.96-.65-1.57-.65h-9.83a2.247 2.247 0 0 0-1.58 3.85l10.93 10.93 5.48 38.38-2.41 3.73a6.732 6.732 0 0 0-.25 6.89c.32.58.71 1.1 1.17 1.56h.01l3.52 3.52a5.562 5.562 0 0 0-1.75 4.06c0 1.67.72 3.17 1.88 4.2L82.901 139H139V79.309z" opacity=".1"/><path fill="#3b566a" d="M111.943 52.251a2.251 2.251 0 0 0-1.693-.768H53.781l-1.974-13.826a2.25 2.25 0 0 0-2.227-1.932h-9.83a2.25 2.25 0 0 0 0 4.5h7.878l6.948 48.666-2.403 3.722a6.746 6.746 0 0 0-.258 6.89 6.747 6.747 0 0 0 5.928 3.522h43.032a2.25 2.25 0 0 0 0-4.5H57.843c-1.207 0-1.784-.82-1.976-1.174-.192-.352-.569-1.283.086-2.296l2.276-3.525 48.113-4.668a2.25 2.25 0 0 0 2.013-1.942l2.64-19.762c.073-.223.123-.457.123-.705 0-.043-.01-.083-.013-.126l1.375-10.296a2.25 2.25 0 0 0-.537-1.78zM78.82 62.203h-7.384v-6.22h7.384v6.22zm4.5-6.22h7.384v6.22H83.32v-6.22zm-4.5 10.72v6.75h-7.384v-6.75h7.384zm-11.884 6.75H56.918l-.964-6.75h10.982v6.75zm-9.376 4.5h9.376v8.211l-8.091.785-1.285-8.996zm13.876 0h7.384v7.058l-7.384.716v-7.774zm11.884 0h7.384v5.905l-7.384.717v-6.622zm0-4.5v-6.75h7.384v6.75H83.32zm11.884-6.75h11.044l-.902 6.75H95.204v-6.75zm11.645-4.5H95.204v-6.22h12.476l-.831 6.22zm-39.913-6.22v6.22H55.312l-.888-6.22h12.512zm28.268 27.439v-5.469h9.541l-.614 4.603-8.927.866z"/><circle cx="60.493" cy="108.65" r="5.625" fill="#1c75a1"/><circle cx="60.493" cy="108.65" r="3.375" fill="#e1e6e9"/><circle cx="92.286" cy="108.65" r="5.625" fill="#1c75a1"/><circle cx="92.286" cy="108.65" r="3.375" fill="#e1e6e9"/></svg>